<?xml version="1.0" standalone="no"?>
<!DOCTYPE svg PUBLIC "-//W3C//DTD SVG 20010904//EN"
 "http://www.w3.org/TR/2001/REC-SVG-20010904/DTD/svg10.dtd">
<svg version="1.0" xmlns="http://www.w3.org/2000/svg"
 width="500.000000pt" height="500.000000pt" viewBox="0 0 500.000000 500.000000"
 preserveAspectRatio="xMidYMid meet">

<g transform="translate(0.000000,500.000000) scale(0.100000,-0.100000)"
fill="#000000" stroke="none">
<path d="M700 3299 c-33 -14 -70 -48 -83 -79 -6 -15 -11 -107 -11 -230 -1
-192 -2 -208 -23 -247 -29 -53 -73 -84 -129 -91 -28 -3 -48 -11 -54 -22 -12
-22 -4 -30 33 -30 42 0 103 -37 131 -80 41 -62 47 -108 44 -303 -2 -156 0
-186 14 -213 26 -47 72 -64 171 -64 82 0 97 6 97 36 0 2 -38 4 -85 4 -158 0
-180 34 -166 252 13 207 -13 311 -91 368 l-36 27 40 39 c76 73 83 100 83 334
1 225 4 241 59 260 16 5 64 10 106 10 59 0 79 4 83 15 4 8 3 16 -1 18 -17 9
-159 5 -182 -4z"/>
<path d="M4122 3291 c3 -13 21 -17 100 -21 148 -8 143 1 143 -258 0 -196 1
-210 24 -259 13 -29 41 -69 62 -88 l39 -35 -50 -49 c-74 -74 -84 -120 -76
-335 6 -153 5 -175 -11 -206 -25 -48 -54 -60 -151 -60 -74 0 -83 -2 -80 -17 3
-15 16 -18 85 -21 95 -3 142 12 170 54 16 25 18 52 18 234 0 176 3 211 18 245
34 76 99 125 167 125 31 0 35 6 24 34 -4 11 -19 16 -44 16 -44 0 -95 31 -127
78 -36 54 -45 122 -37 292 6 145 5 159 -14 203 -29 65 -80 88 -187 86 -64 -1
-76 -4 -73 -18z"/>
<path d="M1732 2988 c-7 -7 -12 -21 -12 -33 0 -29 19 -45 52 -45 36 0 56 36
39 69 -13 23 -59 29 -79 9z"/>
<path d="M2260 2970 l-35 -5 -3 -217 -2 -218 40 0 40 0 0 108 c0 100 2 110 23
130 29 27 63 28 77 3 5 -11 10 -69 10 -130 l0 -111 40 0 40 0 0 113 c0 125
-12 182 -40 197 -27 14 -81 12 -110 -5 -14 -8 -28 -14 -32 -15 -4 0 -8 35 -10
78 l-3 77 -35 -5z"/>
<path d="M3720 2970 l-35 -5 -3 -217 -2 -218 40 0 40 0 0 108 c0 100 2 110 23
130 29 27 63 28 77 3 5 -11 10 -69 10 -130 l0 -111 40 0 40 0 0 113 c0 125
-12 182 -40 197 -27 14 -81 12 -110 -5 -14 -8 -28 -14 -32 -15 -4 0 -8 35 -10
78 l-3 77 -35 -5z"/>
<path d="M2862 2930 c-31 -14 -47 -29 -58 -56 -30 -72 1 -118 105 -159 35 -13
69 -30 77 -36 19 -15 18 -63 -2 -79 -22 -19 -93 -16 -133 4 -33 17 -34 17 -55
-4 l-21 -21 23 -19 c29 -24 84 -40 137 -40 46 0 123 32 131 55 8 19 24 20 24
0 0 -21 59 -55 95 -55 17 0 46 9 66 19 30 16 39 17 50 6 8 -7 24 -16 35 -19
18 -5 23 -1 28 20 4 15 2 32 -3 37 -6 6 -11 50 -11 98 0 48 -4 99 -10 113 -15
41 -63 59 -143 53 -75 -5 -92 -14 -82 -46 6 -19 11 -20 65 -14 66 7 90 -4 90
-42 0 -21 -5 -23 -65 -27 -50 -3 -71 -9 -87 -25 l-21 -22 -21 32 c-21 31 -36
41 -141 89 -40 19 -50 28 -50 48 0 17 8 29 28 38 25 12 36 11 79 -3 47 -15 51
-15 70 2 19 17 19 18 -2 35 -49 40 -133 48 -198 18z m408 -286 c0 -42 -21 -63
-62 -64 -31 0 -53 30 -43 60 6 20 44 38 83 39 19 1 22 -4 22 -35z"/>
<path d="M747 2848 c-4 -51 -10 -144 -13 -205 l-7 -113 35 0 35 0 7 134 c3 73
3 142 0 152 -4 11 -4 16 0 12 4 -3 16 -46 27 -95 10 -48 21 -98 24 -110 4 -18
12 -23 38 -23 l33 0 19 98 c28 152 34 149 34 -15 l1 -153 40 0 c22 0 40 4 40
9 0 6 12 3 28 -5 37 -19 71 -18 117 6 21 11 41 16 44 11 10 -14 51 -32 60 -27
11 7 21 56 11 56 -4 0 -9 47 -12 105 -3 99 -5 107 -31 133 -26 25 -33 27 -112
27 -92 0 -114 -10 -96 -43 9 -18 18 -19 69 -15 63 6 92 -9 92 -48 0 -16 -7
-19 -53 -19 -31 0 -67 -7 -89 -18 l-36 -19 -6 51 c-3 28 -6 79 -6 113 0 86 -4
93 -54 93 l-43 0 -23 -130 c-13 -72 -25 -129 -26 -127 -2 2 -13 52 -24 113
-29 153 -25 144 -74 144 l-43 0 -6 -92z m483 -202 c0 -54 -68 -89 -100 -52
-30 37 11 86 73 86 24 0 27 -4 27 -34z"/>
<path d="M3463 2913 c-7 -2 -13 -20 -13 -39 0 -32 -2 -34 -35 -34 -31 0 -35
-3 -35 -25 0 -22 4 -25 34 -25 l34 0 4 -104 c3 -94 5 -107 27 -130 28 -30 67
-40 119 -31 57 9 65 17 51 47 -10 23 -15 25 -41 18 -31 -9 -58 -4 -70 14 -4 6
-8 50 -8 99 l0 87 50 0 c47 0 50 2 50 25 0 23 -3 25 -50 25 l-50 0 0 40 c0 37
-2 40 -27 39 -16 0 -34 -3 -40 -6z"/>
<path d="M1453 2830 c-27 -16 -33 -17 -33 -5 0 10 -11 15 -35 15 l-35 0 0
-155 0 -155 40 0 40 0 0 113 c0 98 3 116 18 130 24 21 68 22 76 1 3 -9 6 -67
6 -130 l0 -114 41 0 41 0 -4 141 c-3 134 -4 142 -27 160 -30 25 -87 24 -128
-1z"/>
<path d="M1979 2827 c-44 -30 -53 -86 -18 -123 12 -13 26 -24 30 -24 5 0 33
-9 64 -21 56 -21 69 -41 43 -67 -17 -17 -73 -15 -110 4 -31 16 -32 16 -51 -7
-18 -22 -18 -24 -1 -36 10 -7 34 -18 54 -23 107 -30 202 15 202 96 0 47 -21
67 -102 96 -51 18 -65 28 -65 43 0 16 8 21 42 23 23 2 52 -2 64 -9 20 -10 25
-8 41 12 19 23 19 23 -14 40 -49 27 -136 25 -179 -4z"/>
<path d="M4038 2835 c-56 -31 -87 -122 -68 -197 27 -102 126 -144 228 -98 43
19 43 20 26 44 -15 24 -17 25 -44 11 -16 -8 -40 -15 -53 -15 -31 0 -77 36 -77
61 0 17 8 19 100 19 l100 0 0 40 c0 92 -55 150 -140 150 -25 -1 -57 -7 -72
-15z m112 -55 c11 -11 20 -31 20 -45 0 -24 -3 -25 -60 -25 -56 0 -60 2 -60 23
0 56 62 85 100 47z"/>
<path d="M1650 2815 c0 -23 4 -25 45 -25 l45 0 0 -100 0 -100 -45 0 c-43 0
-45 -1 -45 -30 l0 -30 125 0 125 0 0 30 c0 28 -2 30 -40 30 l-40 0 0 125 0
125 -85 0 c-84 0 -85 0 -85 -25z"/>
<path d="M2895 2411 c17 -7 21 -20 25 -77 4 -60 8 -69 25 -70 15 -1 16 0 3 3
-15 4 -18 16 -18 79 l0 74 -27 -1 c-24 0 -25 -1 -8 -8z"/>
<path d="M1490 2335 c0 -43 4 -75 10 -75 6 0 10 16 10 35 0 19 4 35 9 35 5 0
19 -16 31 -35 12 -19 26 -35 31 -35 6 0 1 14 -11 31 -20 28 -21 31 -6 48 33
36 13 71 -41 71 l-33 0 0 -75z m69 51 c17 -20 3 -46 -25 -46 -20 0 -24 5 -24
30 0 23 5 30 19 30 10 0 24 -6 30 -14z"/>
<path d="M2180 2401 c20 -5 26 -14 28 -42 2 -19 -2 -48 -8 -63 -9 -25 -14 -28
-41 -22 -18 3 -28 2 -24 -4 3 -6 19 -10 35 -10 38 0 50 23 50 94 l0 56 -32 -1
c-30 -1 -31 -2 -8 -8z"/>
<path d="M2252 2398 c-23 -23 -13 -45 28 -62 67 -27 45 -76 -27 -61 -21 5 -24
4 -13 -4 37 -26 90 -9 90 29 0 23 -7 31 -40 44 -61 24 -46 64 18 50 21 -4 24
-3 12 5 -20 14 -53 14 -68 -1z"/>
<path d="M2460 2335 l0 -75 28 0 c40 0 62 28 62 78 0 45 -25 72 -67 72 -22 0
-23 -4 -23 -75z m62 48 c35 -31 11 -113 -33 -113 -17 0 -19 7 -19 65 0 54 3
65 17 65 9 0 25 -7 35 -17z"/>
<path d="M1940 2386 c0 -8 -6 -17 -12 -19 -10 -4 -10 -6 0 -6 7 -1 12 -16 12
-40 0 -42 19 -65 47 -58 14 4 13 5 -4 6 -20 1 -23 6 -23 45 0 34 4 46 18 49
16 4 16 5 0 6 -10 0 -18 8 -18 16 0 8 -4 15 -10 15 -5 0 -10 -6 -10 -14z"/>
<path d="M1616 2367 c-21 -15 -24 -70 -6 -92 14 -16 55 -20 64 -6 4 5 -3 7
-14 4 -20 -5 -50 12 -50 28 0 5 18 9 40 9 46 0 53 17 20 50 -23 23 -30 24 -54
7z m52 -29 c3 -14 -3 -18 -27 -18 -29 0 -41 17 -24 34 13 13 48 1 51 -16z"/>
<path d="M1720 2370 c-11 -7 -7 -10 18 -10 19 0 32 -5 32 -13 0 -7 -15 -17
-32 -22 -26 -8 -33 -15 -33 -35 0 -23 4 -25 41 -25 l41 -1 -5 46 c-2 25 -11
51 -20 58 -19 14 -22 15 -42 2z m48 -72 c-3 -26 -36 -37 -49 -17 -10 17 8 39
33 39 14 0 19 -6 16 -22z"/>
<path d="M1831 2361 c-25 -25 -27 -63 -5 -85 17 -17 59 -22 68 -7 3 5 -9 8
-27 7 -31 -1 -32 0 -32 39 0 38 2 40 35 46 19 4 30 7 23 8 -6 0 -18 4 -26 7
-9 3 -25 -4 -36 -15z"/>
<path d="M2579 2359 c-16 -16 -20 -28 -15 -52 4 -17 12 -35 19 -39 16 -11 55
-10 61 1 3 5 -9 8 -26 7 -23 -1 -33 4 -36 17 -3 14 4 17 32 17 32 0 36 3 36
25 0 14 -8 29 -19 35 -26 14 -28 13 -52 -11z m59 -21 c3 -14 -3 -18 -27 -18
-29 0 -41 17 -24 34 13 13 48 1 51 -16z"/>
<path d="M2802 2364 c-25 -17 -30 -72 -10 -92 14 -14 54 -16 62 -3 4 5 -3 7
-14 4 -20 -5 -50 12 -50 28 0 5 18 9 41 9 36 0 40 3 37 21 -2 12 -12 28 -23
35 -18 12 -24 11 -43 -2z m51 -18 c8 -19 -1 -26 -35 -26 -30 0 -31 1 -22 24 8
20 50 21 57 2z"/>
<path d="M3010 2360 c-35 -35 -19 -100 23 -100 33 0 47 19 47 62 0 27 -5 40
-19 48 -26 13 -28 13 -51 -10z m58 -23 c2 -10 1 -30 -2 -43 -10 -37 -50 -29
-54 9 -2 16 -1 35 2 44 8 20 50 12 54 -10z"/>
<path d="M3123 2373 c-21 -4 -23 -10 -23 -79 0 -43 4 -74 10 -74 6 0 10 11 10
24 0 19 4 23 20 19 30 -8 50 15 50 58 0 28 -5 41 -19 49 -11 5 -21 9 -23 9 -2
-1 -13 -4 -25 -6z m53 -40 c8 -32 -6 -58 -32 -58 -20 0 -31 41 -20 71 10 25
45 16 52 -13z"/>
<path d="M3232 2364 c-25 -17 -30 -72 -10 -92 14 -14 54 -16 62 -3 4 5 -3 7
-14 4 -20 -5 -50 12 -50 28 0 5 18 9 41 9 36 0 40 3 37 21 -2 12 -12 28 -23
35 -18 12 -24 11 -43 -2z m51 -18 c8 -19 -1 -26 -35 -26 -30 0 -31 1 -22 24 8
20 50 21 57 2z"/>
<path d="M3373 2373 c-7 -2 -13 -9 -13 -14 0 -4 7 -6 15 -3 8 4 15 1 15 -5 0
-6 5 -11 10 -11 6 0 10 9 10 20 0 19 -12 24 -37 13z"/>
<path d="M2675 2350 c16 -53 35 -91 44 -86 11 7 43 98 36 104 -2 3 -9 -8 -15
-24 -26 -72 -26 -72 -40 -29 -14 45 -37 77 -25 35z"/>
<path d="M3328 2363 c7 -3 12 -23 12 -48 0 -25 -5 -45 -12 -48 -7 -3 3 -5 22
-5 19 0 27 2 17 5 -14 4 -18 13 -16 41 3 55 1 62 -18 61 -11 0 -13 -3 -5 -6z"/>
<path d="M3450 2275 c0 -8 7 -15 15 -15 8 0 15 7 15 15 0 8 -7 15 -15 15 -8 0
-15 -7 -15 -15z"/>
</g>
</svg>
