<?xml version="1.0" standalone="no"?>
<!DOCTYPE svg PUBLIC "-//W3C//DTD SVG 20010904//EN"
 "http://www.w3.org/TR/2001/REC-SVG-20010904/DTD/svg10.dtd">
<svg version="1.0" xmlns="http://www.w3.org/2000/svg"
 width="500.000000pt" height="500.000000pt" viewBox="0 0 500.000000 500.000000"
 preserveAspectRatio="xMidYMid meet">

<g transform="translate(0.000000,500.000000) scale(0.100000,-0.100000)"
fill="#000000" stroke="none">
<path d="M2350 3000 l0 -280 55 0 55 0 0 109 c0 106 1 110 26 130 33 26 58 27
84 1 18 -18 20 -33 20 -130 l0 -110 55 0 55 0 0 133 c0 145 -6 164 -60 192
-43 22 -122 19 -154 -6 l-26 -20 0 130 0 131 -55 0 -55 0 0 -280z"/>
<path d="M3930 3000 l0 -280 55 0 55 0 0 96 c0 53 5 105 12 117 27 52 75 61
107 21 18 -23 21 -41 21 -130 l0 -104 55 0 55 0 0 125 c0 91 -4 134 -15 154
-30 59 -137 80 -201 40 l-34 -21 0 131 0 131 -55 0 -55 0 0 -280z"/>
<path d="M2905 3251 c-65 -30 -88 -62 -93 -129 -5 -78 19 -112 116 -162 91
-48 102 -57 102 -85 0 -56 -72 -68 -155 -26 -32 16 -60 29 -61 28 0 -1 -13
-23 -28 -49 l-27 -47 23 -15 c85 -56 218 -68 295 -28 72 38 104 133 68 202
-19 37 -63 69 -147 109 -74 35 -91 60 -62 92 21 23 71 25 120 4 20 -8 39 -13
43 -10 4 2 16 23 26 45 22 48 20 51 -59 75 -65 20 -112 19 -161 -4z"/>
<path d="M336 3218 c-3 -24 -13 -124 -21 -223 -8 -99 -18 -201 -21 -227 l-6
-48 60 0 59 0 6 58 c4 31 10 103 13 160 4 56 11 102 15 102 5 0 9 -4 9 -9 0
-5 23 -75 51 -155 l51 -146 37 0 37 0 54 157 c61 178 63 178 74 -3 11 -172 7
-164 76 -164 l59 0 -5 33 c-5 40 -44 471 -44 492 0 13 -11 15 -66 13 l-66 -3
-55 -145 c-31 -80 -58 -148 -62 -152 -3 -4 -33 62 -65 147 l-59 155 -63 0 -63
0 -5 -42z"/>
<path d="M1837 3242 c-39 -43 -8 -112 49 -112 25 0 64 43 64 71 0 50 -80 78
-113 41z"/>
<path d="M3688 3118 c-3 -57 -5 -63 -25 -66 -19 -3 -23 -10 -23 -43 0 -35 3
-39 25 -39 25 0 25 -1 25 -82 0 -107 18 -147 75 -167 32 -10 49 -11 82 -2 l42
11 -15 45 c-12 33 -19 42 -31 38 -27 -10 -43 26 -43 94 l0 63 35 0 c34 0 35 1
35 39 0 37 -2 40 -32 43 -33 3 -33 3 -36 66 l-3 62 -54 0 -54 0 -3 -62z"/>
<path d="M984 3028 c-45 -40 -64 -83 -64 -145 0 -67 33 -122 90 -150 56 -29
85 -29 143 1 44 22 47 22 47 5 0 -16 8 -19 55 -19 l55 0 0 165 0 165 -54 0
c-32 0 -56 -5 -58 -11 -3 -8 -14 -7 -35 5 -18 9 -56 16 -87 16 -48 0 -60 -4
-92 -32z m177 -71 c65 -50 36 -147 -45 -147 -71 0 -105 96 -50 139 30 23 71
27 95 8z"/>
<path d="M1533 3039 c-28 -18 -33 -19 -33 -5 0 13 -11 16 -55 16 l-55 0 0
-165 0 -165 55 0 55 0 0 96 c0 53 5 105 12 117 27 52 75 61 107 21 18 -23 21
-41 21 -130 l0 -104 55 0 55 0 0 125 c0 91 -4 134 -15 154 -30 59 -140 80
-202 40z"/>
<path d="M2070 3038 c-41 -28 -57 -76 -38 -116 8 -17 35 -38 72 -57 67 -34 77
-48 46 -65 -16 -8 -30 -7 -64 8 l-44 20 -22 -39 -22 -39 34 -14 c79 -34 186
-27 222 13 24 27 34 71 24 108 -7 28 -19 38 -79 65 -46 22 -69 38 -67 48 4 16
44 19 89 7 22 -6 28 -2 42 29 17 34 17 35 -9 44 -14 6 -54 10 -88 10 -49 0
-71 -5 -96 -22z"/>
<path d="M3279 3037 c-42 -28 -79 -98 -79 -151 0 -56 34 -121 78 -148 50 -31
130 -31 172 0 29 22 30 22 30 2 0 -18 6 -20 55 -20 l55 0 0 165 0 165 -54 0
c-30 0 -56 -5 -58 -11 -2 -6 -14 -5 -33 5 -45 24 -125 21 -166 -7z m176 -92
c31 -30 32 -73 4 -109 -45 -57 -139 -19 -139 56 0 39 40 78 80 78 19 0 40 -9
55 -25z"/>
<path d="M4435 3041 c-92 -56 -119 -164 -62 -249 12 -18 45 -44 75 -59 44 -22
60 -24 104 -19 59 8 82 18 121 54 l28 26 -43 22 c-42 21 -43 21 -67 3 -31 -25
-72 -24 -105 2 -52 41 -37 49 95 49 l122 0 -5 51 c-9 91 -69 139 -173 139 -41
0 -70 -6 -90 -19z m139 -67 c32 -32 20 -44 -43 -44 -67 0 -77 7 -55 38 18 27
75 30 98 6z"/>
<path d="M1820 2885 l0 -165 60 0 60 0 0 165 0 165 -60 0 -60 0 0 -165z"/>
<path d="M799 2384 c-7 -9 -15 -46 -17 -83 -2 -36 -8 -76 -14 -89 -9 -17 -9
-25 0 -34 7 -7 12 -37 12 -69 0 -80 15 -116 51 -124 15 -4 33 -4 39 0 17 11
11 42 -10 48 -17 4 -20 14 -20 69 0 35 -5 69 -11 75 -8 8 -8 17 0 31 6 11 11
48 11 82 0 53 3 63 20 67 11 3 20 14 20 24 0 15 -7 19 -34 19 -19 0 -39 -7
-47 -16z"/>
<path d="M3090 2240 l0 -160 30 0 30 0 0 160 0 160 -30 0 -30 0 0 -160z"/>
<path d="M4130 2381 c0 -10 6 -21 14 -24 32 -12 32 -312 0 -324 -8 -3 -14 -16
-14 -30 0 -23 3 -25 32 -19 47 9 52 18 56 99 2 39 8 82 14 95 9 17 9 25 0 34
-7 7 -12 41 -12 78 0 79 -17 110 -61 110 -22 0 -29 -5 -29 -19z"/>
<path d="M930 2235 l0 -155 30 0 c29 0 29 1 32 63 l3 62 48 -62 c45 -59 51
-63 88 -63 46 0 45 6 -20 80 l-39 44 29 27 c29 27 38 73 23 114 -11 28 -60 45
-129 45 l-65 0 0 -155z m111 95 c21 -12 25 -50 7 -68 -7 -7 -22 -12 -35 -12
-21 0 -23 5 -23 45 0 48 11 56 51 35z"/>
<path d="M2120 2234 l0 -156 70 4 c101 5 157 53 167 141 11 96 -65 167 -180
167 l-57 0 0 -156z m133 76 c52 -41 40 -138 -20 -161 -47 -18 -53 -8 -53 91 0
88 1 90 24 90 13 0 35 -9 49 -20z"/>
<path d="M1880 2310 c0 -18 -6 -33 -15 -36 -8 -4 -15 -14 -15 -24 0 -10 7 -20
15 -24 11 -4 15 -21 15 -60 0 -65 16 -86 66 -86 27 0 34 4 34 20 0 10 -9 24
-20 30 -15 8 -20 21 -20 51 0 32 4 42 20 46 11 3 20 14 20 24 0 12 -7 19 -20
19 -16 0 -20 7 -20 35 0 32 -2 35 -30 35 -27 0 -30 -3 -30 -30z"/>
<path d="M1250 2269 c-61 -25 -84 -82 -56 -137 20 -38 44 -52 91 -52 38 0 95
24 95 40 0 12 -8 13 -75 14 -39 1 -50 5 -53 19 -3 15 5 17 68 17 l72 0 -7 28
c-14 58 -80 94 -135 71z m54 -35 c30 -12 18 -34 -19 -34 -37 0 -43 8 -23 28
14 14 20 14 42 6z"/>
<path d="M1457 2264 c-80 -44 -49 -184 40 -184 19 0 43 5 54 10 13 7 19 7 19
0 0 -5 14 -10 30 -10 l30 0 0 95 0 96 -42 -2 c-24 -1 -56 1 -73 5 -19 4 -40 0
-58 -10z m103 -60 c32 -38 -27 -95 -66 -64 -14 13 -19 61 -7 73 12 13 61 7 73
-9z"/>
<path d="M1740 2273 c-8 -3 -27 -17 -42 -31 -65 -60 -16 -162 76 -162 24 0 47
4 50 9 12 19 -7 41 -34 41 -31 0 -60 22 -60 46 0 26 40 56 65 50 18 -5 25 -1
30 15 4 11 5 22 3 24 -7 7 -74 14 -88 8z"/>
<path d="M2442 2265 c-38 -17 -66 -71 -56 -110 10 -41 59 -75 109 -75 44 0 98
30 82 47 -5 4 -34 8 -65 8 -46 0 -57 3 -60 18 -3 15 5 17 67 17 57 0 71 3 71
15 0 32 -30 73 -61 84 -40 14 -46 14 -87 -4z m76 -37 c21 -21 13 -28 -28 -28
-22 0 -40 4 -40 8 0 14 23 32 40 32 9 0 21 -5 28 -12z"/>
<path d="M2914 2271 c-65 -28 -84 -113 -35 -162 38 -37 103 -41 145 -8 36 28
18 41 -46 33 -40 -6 -48 -4 -57 15 -11 20 -10 21 59 21 68 0 70 1 70 24 0 56
-80 101 -136 77z m64 -43 c20 -20 14 -28 -23 -28 -24 0 -35 5 -35 14 0 24 39
33 58 14z"/>
<path d="M3254 2266 c-69 -30 -85 -106 -35 -157 58 -58 179 -28 194 48 8 42
-16 87 -56 106 -42 20 -62 21 -103 3z m86 -62 c32 -38 -27 -95 -66 -64 -14 13
-19 61 -7 73 12 13 61 7 73 -9z"/>
<path d="M3538 2265 c-16 -9 -28 -11 -28 -5 0 5 -13 10 -30 10 l-30 0 0 -145
0 -145 30 0 c30 0 30 1 30 54 l0 55 54 -6 c49 -5 57 -3 80 20 20 20 26 36 26
71 0 79 -69 126 -132 91z m62 -65 c27 -50 -32 -92 -73 -52 -18 18 -19 25 -9
47 15 32 66 35 82 5z"/>
<path d="M3756 2265 c-41 -22 -55 -44 -56 -88 0 -57 43 -97 103 -97 29 0 53 7
67 18 34 28 18 44 -36 36 -29 -4 -49 -2 -59 6 -28 23 -15 30 55 30 64 0 70 2
70 21 0 33 -19 60 -55 75 -43 18 -53 17 -89 -1z m72 -37 c20 -20 14 -28 -23
-28 -24 0 -35 5 -35 14 0 24 39 33 58 14z"/>
<path d="M4028 2266 c-16 -8 -28 -11 -28 -5 0 5 -13 9 -30 9 l-30 0 0 -95 0
-95 30 0 c30 0 30 0 30 58 0 65 11 82 52 82 33 0 59 37 37 51 -19 12 -30 11
-61 -5z"/>
<path d="M2600 2267 c0 -2 22 -44 48 -93 66 -120 76 -120 143 4 l50 92 -38 0
c-36 0 -39 -3 -61 -53 l-24 -52 -23 53 c-22 49 -26 52 -59 52 -20 0 -36 -2
-36 -3z"/>
</g>
</svg>
