<svg width="187" height="40" viewBox="0 0 187 40" fill="none" xmlns="http://www.w3.org/2000/svg">
<g clip-path="url(#clip0_1_6)">
<path d="M19.1251 -3.65786C17.6631 -3.24884 16.024 -2.2555 15.4481 -1.34981C15.1822 -0.911567 14.9607 1.77629 14.9607 5.36984C14.9164 10.9793 14.8721 11.4467 13.9418 12.5862C12.657 14.1346 10.7078 15.0403 8.22688 15.2448C6.98643 15.3325 6.1004 15.5662 5.83459 15.8876C5.30297 16.5303 5.65738 16.764 7.29655 16.764C9.15722 16.764 11.8596 17.845 13.1001 19.1013C14.9164 20.9127 15.1822 22.2566 15.0493 27.9537C14.9607 32.5114 15.0493 33.3879 15.6696 34.1767C16.8214 35.5498 18.8593 36.0465 23.2451 36.0465C26.8779 36.0465 27.5424 35.8712 27.5424 34.9947C27.5424 34.9363 25.8589 34.8779 23.7768 34.8779C16.7771 34.8779 15.8025 33.8845 16.4227 27.5155C16.9986 21.4678 15.8468 18.4293 12.3912 16.764L10.7964 15.9752L12.5684 14.8358C15.9354 12.703 16.2455 11.9142 16.2455 5.07769C16.2898 -1.49588 16.4227 -1.96334 18.8593 -2.51844C19.5681 -2.66452 21.6946 -2.8106 23.5553 -2.8106C26.1691 -2.8106 27.0551 -2.92746 27.2323 -3.24884C27.4095 -3.48256 27.3652 -3.71629 27.188 -3.77472C26.4349 -4.03767 20.144 -3.9208 19.1251 -3.65786Z" fill="black"/>
<path d="M170.725 -3.42412C170.858 -3.04431 171.656 -2.92745 175.156 -2.81058C181.712 -2.57686 181.491 -2.8398 181.491 4.72711C181.491 10.4534 181.535 10.8624 182.554 12.294C183.13 13.1413 184.37 14.3099 185.301 14.865L187.028 15.8876L184.813 17.3192C181.535 19.4811 181.092 20.8251 181.446 27.1065C181.712 31.5765 181.668 32.2192 180.959 33.1249C179.852 34.5273 178.567 34.8779 174.27 34.8779C170.991 34.8779 170.593 34.9363 170.725 35.3746C170.858 35.8128 171.434 35.9004 174.491 35.9881C178.7 36.0757 180.782 35.6375 182.022 34.4104C182.731 33.68 182.82 32.8912 182.82 27.5739C182.82 22.4319 182.953 21.4094 183.617 20.416C185.123 18.1956 188.003 16.7641 191.016 16.7641C192.389 16.7641 192.566 16.5888 192.079 15.7707C191.902 15.4493 191.237 15.3033 190.13 15.3033C188.18 15.3033 185.921 14.3976 184.503 13.0244C182.908 11.4468 182.51 9.46008 182.864 4.49338C183.13 0.257082 183.086 -0.15194 182.244 -1.43744C180.959 -3.33647 178.7 -4.00843 173.959 -3.95C171.124 -3.92079 170.593 -3.83314 170.725 -3.42412Z" fill="black"/>
<path d="M64.8445 5.42829C64.5344 5.6328 64.3129 6.04182 64.3129 6.39241C64.3129 7.23967 65.1546 7.70712 66.6166 7.70712C68.2114 7.70712 69.0974 6.65535 68.3443 5.69123C67.7684 5.01926 65.7305 4.84397 64.8445 5.42829Z" fill="black"/>
<path d="M88.2358 5.95419L86.6852 6.10027L86.5523 12.4401L86.4637 18.8092H88.2358H90.0078V15.6539C90.0078 12.7323 90.0964 12.4401 91.0268 11.8558C92.3115 11.067 93.8178 11.0378 94.438 11.7681C94.6595 12.0895 94.881 13.784 94.881 15.5662V18.8092H96.6531H98.4251V15.5078C98.4251 11.8558 97.8935 10.1905 96.6531 9.75225C95.4569 9.34323 93.0646 9.40166 91.7799 9.89833C91.1597 10.1321 90.5394 10.3074 90.3622 10.3366C90.185 10.3366 90.0078 9.31402 89.9192 8.05773L89.7863 5.80811L88.2358 5.95419Z" fill="black"/>
<path d="M152.916 5.95419L151.366 6.10027L151.233 12.4401L151.144 18.8092H152.916H154.688V15.6539C154.688 12.7323 154.777 12.4401 155.707 11.8558C156.992 11.067 158.498 11.0378 159.118 11.7681C159.34 12.0895 159.561 13.784 159.561 15.5662V18.8092H161.334H163.106V15.5078C163.106 11.8558 162.574 10.1905 161.334 9.75225C160.137 9.34323 157.745 9.40166 156.46 9.89833C155.84 10.1321 155.22 10.3074 155.043 10.3366C154.866 10.3366 154.688 9.31402 154.6 8.05773L154.467 5.80811L152.916 5.95419Z" fill="black"/>
<path d="M114.905 7.12281C113.532 7.53183 112.823 7.97007 112.336 8.7589C111.007 10.8624 112.38 12.2064 116.988 13.4042C118.538 13.784 120.044 14.2807 120.399 14.456C121.24 14.8942 121.196 16.2966 120.31 16.764C119.336 17.3192 116.19 17.2315 114.418 16.6472C112.956 16.1505 112.912 16.1505 111.981 16.764L111.051 17.3776L112.07 17.9327C113.355 18.6339 115.791 19.1013 118.139 19.1013C120.177 19.1013 123.588 18.1664 123.943 17.4944C124.297 16.9393 125.006 16.9101 125.006 17.4944C125.006 18.108 127.62 19.1013 129.215 19.1013C129.968 19.1013 131.253 18.8384 132.139 18.5462C133.468 18.0788 133.866 18.0495 134.354 18.3709C134.708 18.5754 135.417 18.8384 135.904 18.926C136.702 19.0721 136.923 18.9552 137.145 18.3417C137.322 17.9035 137.233 17.4068 137.012 17.2607C136.746 17.0854 136.525 15.7999 136.525 14.3976C136.525 12.9952 136.347 11.5052 136.082 11.0962C135.417 9.89832 133.291 9.37243 129.746 9.54773C126.424 9.69381 125.671 9.95675 126.114 10.8917C126.379 11.4468 126.601 11.476 128.993 11.3007C131.917 11.0962 132.98 11.4175 132.98 12.5277C132.98 13.1413 132.759 13.1997 130.101 13.3166C127.886 13.4042 126.955 13.5795 126.247 14.047L125.316 14.6897L124.386 13.7548C123.456 12.8491 122.791 12.557 118.139 11.1546C116.367 10.5995 115.924 10.3366 115.924 9.75224C115.924 9.25557 116.279 8.90498 117.165 8.64204C118.272 8.29145 118.76 8.32066 120.665 8.72968C122.747 9.16792 122.924 9.16792 123.766 8.67125C124.607 8.17458 124.607 8.14537 123.677 7.6487C121.506 6.48006 117.785 6.24634 114.905 7.12281ZM132.98 15.4786C132.98 16.7056 132.05 17.3192 130.234 17.3484C128.86 17.3484 127.886 16.4719 128.329 15.5954C128.595 15.0111 130.278 14.4852 132.006 14.456C132.848 14.4268 132.98 14.5729 132.98 15.4786Z" fill="black"/>
<path d="M21.2073 9.51852C21.0301 11.0085 20.7643 13.7256 20.6314 15.5078L20.3213 18.8092H21.8718H23.4224L23.7325 14.8942C23.8654 12.7615 23.8654 10.7456 23.7325 10.4534C23.5553 10.1321 23.5553 9.98597 23.7325 10.1028C23.9097 10.1905 24.4413 11.4468 24.9287 12.8783C25.3717 14.2807 25.859 15.7415 25.9919 16.0921C26.1691 16.618 26.5235 16.7641 27.6754 16.7641H29.1373L29.9791 13.9009C31.2195 9.46009 31.4853 9.54774 31.4853 14.3391L31.5296 18.8092H33.3017C34.2763 18.8092 35.0737 18.6923 35.0737 18.5462C35.0737 18.3709 35.6054 18.4586 36.3142 18.6923C37.9534 19.2474 39.4596 19.2182 41.4975 18.517C42.4278 18.1956 43.3139 18.0496 43.4468 18.1956C43.8898 18.6047 45.7062 19.1305 46.1049 18.9845C46.5922 18.78 47.0352 17.3484 46.5922 17.3484C46.415 17.3484 46.1935 15.9752 46.0606 14.2807C45.9277 11.3883 45.8391 11.1546 44.6872 10.395C43.5354 9.6646 43.2253 9.60617 39.7254 9.60617C35.6497 9.60617 34.675 9.89833 35.4725 10.8625C35.8712 11.3883 36.2699 11.4176 38.5293 11.3007C41.3203 11.1254 42.605 11.5636 42.605 12.703C42.605 13.1705 42.2949 13.2582 40.257 13.2582C38.8837 13.2582 37.2888 13.4627 36.3142 13.784L34.7193 14.3391L34.4535 12.8491C34.3206 12.0311 34.1877 10.5411 34.1877 9.54774C34.1877 7.03517 34.0105 6.83066 31.7954 6.83066H29.8905L28.8715 10.6287C28.2956 12.7323 27.764 14.3976 27.7197 14.3391C27.6311 14.2807 27.1437 12.8199 26.6564 11.0377C25.3717 6.56772 25.5489 6.83066 23.3781 6.83066H21.4731L21.2073 9.51852ZM42.605 15.4201C42.605 16.9978 39.5925 18.0203 38.1749 16.9394C36.8458 15.8584 38.6622 14.4268 41.4089 14.4268C42.4721 14.4268 42.605 14.5436 42.605 15.4201Z" fill="black"/>
<path d="M141.531 7.61946C141.221 7.6779 140.955 8.20378 140.955 8.75888C140.955 9.69379 140.866 9.75222 139.404 9.75222C138.031 9.75222 137.854 9.83987 137.854 10.4826C137.854 11.1254 138.031 11.213 139.36 11.213H140.866L141.043 14.2515C141.176 16.9978 141.265 17.3776 142.24 18.0495C143.48 18.926 145.208 19.2182 147.511 18.9552C150.037 18.6923 150.391 18.4585 149.771 17.5821C149.328 16.9101 149.106 16.8517 147.954 17.0562C146.581 17.3191 145.385 17.1731 144.853 16.6472C144.676 16.4719 144.499 15.1864 144.499 13.7548V11.213H146.714C148.796 11.213 148.929 11.1546 148.929 10.4826C148.929 9.81065 148.796 9.75222 146.714 9.75222H144.499V8.58359C144.499 7.5026 144.41 7.41495 143.303 7.44417C142.594 7.44417 141.796 7.53182 141.531 7.61946Z" fill="black"/>
<path d="M52.4843 10.0444C51.2881 10.5119 51.0223 10.5411 51.0223 10.1905C51.0223 9.89833 50.535 9.75225 49.4718 9.75225H47.9212V14.2807V18.8092H49.6933H51.4653V15.5078C51.4653 12.6446 51.5982 12.1187 52.2628 11.7097C53.326 11.0962 55.2753 11.067 55.6297 11.6805C55.7626 11.9434 55.8955 13.638 55.8955 15.4786V18.8092H57.7119H59.5282L59.351 14.6897C59.2181 10.7748 59.1738 10.5411 58.1549 10.0152C56.8258 9.2848 54.3006 9.31402 52.4843 10.0444Z" fill="black"/>
<path d="M75.787 10.132C73.8377 11.0085 73.439 12.6446 74.9895 13.7256C75.5212 14.1054 76.1414 14.4267 76.3186 14.4267C76.5401 14.4267 77.7805 14.6897 79.1539 15.0403C81.6348 15.6538 82.2107 16.2381 81.0589 16.9977C80.3057 17.4944 77.8248 17.436 76.1857 16.8809C74.8123 16.4134 74.768 16.4134 73.9263 17.0854C73.1289 17.7281 73.1289 17.7866 73.882 18.1372C74.325 18.3417 75.3883 18.663 76.2743 18.8091C81.0146 19.6856 85.2232 18.3709 85.2232 16.0044C85.2232 14.6312 84.2929 14.0469 80.7045 13.1997C78.4451 12.6738 77.8248 12.3816 77.8248 11.9434C77.8248 11.4759 78.1793 11.3299 79.6855 11.2714C80.7045 11.213 81.9892 11.3299 82.5208 11.5344C83.4069 11.8265 83.6284 11.7681 84.3372 11.1838C85.1789 10.5118 85.1789 10.5118 83.717 10.0151C81.5462 9.22631 77.6919 9.28474 75.787 10.132Z" fill="black"/>
<path d="M167.004 9.89832C164.523 10.804 163.15 13.4627 163.992 15.6538C165.188 18.6339 169.574 19.8609 174.092 18.517C175.997 17.9619 175.997 17.9327 175.244 17.2315C174.58 16.5303 174.491 16.5011 173.295 16.9101C172.586 17.1439 171.523 17.3484 170.947 17.3484C169.574 17.3484 167.536 16.2966 167.536 15.5662C167.536 15.0695 167.89 15.0111 171.966 15.0111H176.396V13.8425C176.396 11.1546 173.959 9.46008 170.194 9.46008C169.086 9.48929 167.669 9.66459 167.004 9.89832ZM171.966 11.5052C172.453 11.8266 172.852 12.4109 172.852 12.8199C172.852 13.5211 172.719 13.5503 170.194 13.5503C167.713 13.5503 167.536 13.4919 167.536 12.8783C167.536 11.2422 170.282 10.395 171.966 11.5052Z" fill="black"/>
<path d="M61.2117 10.4827C61.2117 11.1546 61.3889 11.213 63.2053 11.213H65.1989V14.1346V17.0562H63.2053C61.3003 17.0562 61.2117 17.0854 61.2117 17.9327V18.8092H66.7494H72.2872V17.9327C72.2872 17.1147 72.1985 17.0562 70.5151 17.0562H68.743V13.4042V9.75225H64.9774C61.256 9.75225 61.2117 9.75225 61.2117 10.4827Z" fill="black"/>
<path d="M116.367 22.2858C117.12 22.4903 117.298 22.8702 117.475 24.5355C117.652 26.2884 117.829 26.5514 118.582 26.5806C119.247 26.6098 119.291 26.5806 118.715 26.4929C118.051 26.3761 117.918 26.0255 117.918 24.1849V22.0229L116.722 22.0521C115.659 22.0521 115.614 22.0813 116.367 22.2858Z" fill="black"/>
<path d="M54.1234 24.5062C54.1234 25.7625 54.3006 26.6974 54.5664 26.6974C54.8322 26.6974 55.0094 26.23 55.0094 25.6749C55.0094 25.1198 55.1867 24.6523 55.4082 24.6523C55.6297 24.6523 56.2499 25.1198 56.7815 25.6749C57.3131 26.23 57.9334 26.6974 58.1549 26.6974C58.4207 26.6974 58.1992 26.2884 57.6675 25.7917C56.7815 24.9737 56.7372 24.886 57.4017 24.3894C58.8637 23.3376 57.9777 22.315 55.5854 22.315H54.1234V24.5062ZM57.1802 23.0162C57.9334 23.6005 57.3131 24.3601 56.0727 24.3601C55.1867 24.3601 55.0094 24.2141 55.0094 23.4837C55.0094 22.8117 55.231 22.6072 55.8512 22.6072C56.2942 22.6072 56.9144 22.7825 57.1802 23.0162Z" fill="black"/>
<path d="M84.6916 22.578C85.5776 22.7241 85.8434 22.987 85.932 23.805C86.0207 24.3601 85.8434 25.2074 85.5776 25.6456C85.1789 26.376 84.9574 26.4637 83.7613 26.2884C82.9638 26.2007 82.5208 26.23 82.698 26.4053C82.8309 26.5806 83.5398 26.6974 84.2486 26.6974C85.932 26.6974 86.4637 26.0255 86.4637 23.9511V22.315L85.046 22.3443C83.717 22.3735 83.6727 22.4027 84.6916 22.578Z" fill="black"/>
<path d="M87.8814 22.6657C86.8624 23.3376 87.3054 23.9804 89.1218 24.477C92.09 25.2659 91.1154 26.6974 87.9257 26.2592C86.9953 26.1131 86.8624 26.1423 87.3497 26.3761C88.9889 27.1357 91.3369 26.639 91.3369 25.5288C91.3369 24.8568 91.0268 24.6231 89.5648 24.2433C86.8624 23.5421 87.527 22.3735 90.3623 22.7825C91.2926 22.8994 91.4255 22.8702 90.8939 22.6364C90.0079 22.2274 88.5459 22.2274 87.8814 22.6657Z" fill="black"/>
<path d="M97.0961 24.5062V26.6974H98.3365C100.109 26.6974 101.083 25.8794 101.083 24.4186C101.083 23.1039 99.9757 22.315 98.115 22.315C97.1404 22.315 97.0961 22.4319 97.0961 24.5062ZM99.8428 23.1039C101.393 24.0096 100.33 26.4053 98.3808 26.4053C97.6277 26.4053 97.5391 26.2007 97.5391 24.5062C97.5391 22.9286 97.672 22.6072 98.2922 22.6072C98.6909 22.6072 99.3998 22.8117 99.8428 23.1039Z" fill="black"/>
<path d="M74.0593 23.0162C74.0593 23.2499 73.7934 23.5129 73.5276 23.5713C73.0846 23.6882 73.0846 23.7466 73.5276 23.7466C73.8377 23.7758 74.0593 24.2141 74.0593 24.9153C74.0593 26.1423 74.901 26.8143 76.1414 26.6098C76.7617 26.4929 76.7174 26.4637 75.9642 26.4345C75.0782 26.4053 74.9453 26.2592 74.9453 25.1198C74.9453 24.1264 75.1225 23.7758 75.7427 23.6882C76.4515 23.5713 76.4515 23.5421 75.7427 23.5129C75.2997 23.5129 74.9453 23.2792 74.9453 23.0454C74.9453 22.8117 74.7681 22.6072 74.5023 22.6072C74.2808 22.6072 74.0593 22.7825 74.0593 23.0162Z" fill="black"/>
<path d="M59.7054 23.5713C58.7751 24.0096 58.6422 25.6164 59.4396 26.2592C60.0598 26.7266 61.8762 26.8435 62.2749 26.4345C62.4521 26.2884 62.142 26.23 61.6547 26.3176C60.7687 26.4637 59.4396 25.967 59.4396 25.4996C59.4396 25.3535 60.2371 25.2366 61.2117 25.2366C63.2496 25.2366 63.5597 24.74 62.0977 23.7758C61.0788 23.1039 60.7687 23.0747 59.7054 23.5713ZM62.0091 24.4186C62.142 24.8276 61.8762 24.9445 60.813 24.9445C59.5282 24.9445 58.9966 24.4478 59.7497 23.9511C60.3257 23.5713 61.8762 23.9219 62.0091 24.4186Z" fill="black"/>
<path d="M64.3128 23.4837C63.8255 23.6882 64.0027 23.7758 65.1103 23.7758C65.952 23.7758 66.5279 23.9219 66.5279 24.1556C66.5279 24.3602 65.8634 24.6523 65.1103 24.7984C63.9584 25.0321 63.6483 25.2366 63.6483 25.821C63.6483 26.4929 63.8255 26.5514 65.4647 26.5514L67.2811 26.5806L67.0595 25.2366C66.9709 24.5062 66.5722 23.7466 66.1735 23.5421C65.3318 23.1331 65.1989 23.1039 64.3128 23.4837ZM66.4393 25.5872C66.3064 26.3468 64.8445 26.6682 64.2685 26.0839C63.8255 25.5872 64.623 24.9445 65.7305 24.9445C66.3507 24.9445 66.5722 25.1198 66.4393 25.5872Z" fill="black"/>
<path d="M69.2302 23.7466C68.1227 24.477 68.0341 25.5872 69.0087 26.23C69.7619 26.7267 71.6225 26.8727 72.0213 26.4345C72.1542 26.2884 71.6225 26.2008 70.8251 26.23C69.4518 26.2592 69.4075 26.23 69.4075 25.0906C69.4075 23.9804 69.4961 23.9219 70.958 23.7466C71.7997 23.6298 72.2871 23.5421 71.977 23.5129C71.7111 23.5129 71.1795 23.3961 70.8251 23.3084C70.4264 23.2208 69.7176 23.4253 69.2302 23.7466Z" fill="black"/>
<path d="M102.368 23.8051C101.659 24.2725 101.482 24.6231 101.703 25.3243C101.881 25.821 102.235 26.3469 102.545 26.4637C103.254 26.7851 104.982 26.7559 105.248 26.4345C105.38 26.2884 104.849 26.2008 104.096 26.23C103.077 26.2592 102.634 26.1131 102.501 25.7333C102.368 25.3243 102.678 25.2367 103.918 25.2367C105.336 25.2367 105.513 25.149 105.513 24.5063C105.513 24.0972 105.159 23.659 104.672 23.4837C103.52 23.0747 103.431 23.1039 102.368 23.8051ZM104.982 24.4186C105.115 24.8276 104.849 24.9445 103.786 24.9445C102.501 24.9445 101.969 24.4478 102.722 23.9512C103.298 23.5714 104.849 23.9219 104.982 24.4186Z" fill="black"/>
<path d="M112.247 23.659C111.14 24.1556 110.918 25.7625 111.804 26.3468C112.424 26.7559 114.197 26.8143 114.551 26.4345C114.728 26.2884 114.418 26.23 113.931 26.3176C113.045 26.4637 111.716 25.967 111.716 25.4996C111.716 25.3535 112.513 25.2366 113.532 25.2366C115.127 25.2366 115.304 25.149 115.171 24.6231C115.083 24.2725 114.64 23.8051 114.152 23.6005C113.355 23.25 113.089 23.2792 112.247 23.659ZM114.507 24.1849C114.861 24.74 114.462 24.9445 112.956 24.9445C111.627 24.9445 111.583 24.9153 111.981 24.2433C112.336 23.659 114.197 23.6298 114.507 24.1849Z" fill="black"/>
<path d="M121.462 23.7758C119.911 24.7984 120.62 26.6974 122.481 26.6974C123.943 26.6974 124.563 26.1423 124.563 24.886C124.563 24.0972 124.342 23.7174 123.721 23.4837C122.57 23.1039 122.481 23.1039 121.462 23.7758ZM124.031 24.4478C124.12 24.74 124.076 25.3243 123.943 25.7041C123.5 26.7851 121.728 26.5513 121.551 25.4411C121.462 24.9737 121.506 24.4186 121.639 24.1556C121.994 23.5713 123.854 23.805 124.031 24.4478Z" fill="black"/>
<path d="M126.468 23.396C125.538 23.5129 125.449 23.6882 125.449 25.7041C125.449 26.9604 125.626 27.8661 125.892 27.8661C126.158 27.8661 126.335 27.5447 126.335 27.1649C126.335 26.6098 126.512 26.4929 127.221 26.6098C128.55 26.8435 129.436 26.1715 129.436 24.9153C129.436 24.0972 129.215 23.7174 128.595 23.4837C128.107 23.3376 127.664 23.2207 127.576 23.2207C127.487 23.25 127 23.3376 126.468 23.396ZM128.816 24.5647C129.17 25.4996 128.55 26.2592 127.398 26.2592C126.512 26.2592 126.025 25.0613 126.512 24.1849C126.955 23.4545 128.506 23.7174 128.816 24.5647Z" fill="black"/>
<path d="M131.297 23.659C130.189 24.1556 129.968 25.7625 130.854 26.3468C131.474 26.7559 133.246 26.8143 133.601 26.4345C133.778 26.2884 133.468 26.23 132.98 26.3176C132.094 26.4637 130.765 25.967 130.765 25.4996C130.765 25.3535 131.563 25.2366 132.582 25.2366C134.177 25.2366 134.354 25.149 134.221 24.6231C134.132 24.2725 133.689 23.8051 133.202 23.6005C132.404 23.25 132.139 23.2792 131.297 23.659ZM133.556 24.1849C133.911 24.74 133.512 24.9445 132.006 24.9445C130.677 24.9445 130.632 24.9153 131.031 24.2433C131.386 23.659 133.246 23.6298 133.556 24.1849Z" fill="black"/>
<path d="M137.543 23.396C137.233 23.4544 136.968 23.659 136.968 23.805C136.968 23.9219 137.278 23.9803 137.632 23.8927C137.986 23.7758 138.297 23.8635 138.297 24.0388C138.297 24.2141 138.518 24.3601 138.74 24.3601C139.005 24.3601 139.183 24.0972 139.183 23.7758C139.183 23.2207 138.651 23.0746 137.543 23.396Z" fill="black"/>
<path d="M106.621 24.068C107.33 25.6165 108.171 26.7267 108.57 26.5806C109.058 26.3761 110.475 23.7174 110.165 23.5422C110.076 23.4545 109.766 23.7759 109.501 24.2433C108.349 26.3469 108.349 26.3469 107.728 25.0906C107.108 23.7759 106.089 22.841 106.621 24.068Z" fill="black"/>
<path d="M135.55 23.6882C135.86 23.7759 136.082 24.3602 136.082 25.0906C136.082 25.821 135.86 26.4053 135.55 26.4929C135.24 26.5806 135.683 26.639 136.525 26.639C137.366 26.639 137.721 26.5806 137.278 26.4929C136.657 26.3761 136.48 26.1131 136.569 25.2951C136.702 23.6882 136.613 23.4837 135.771 23.5129C135.284 23.5129 135.196 23.6006 135.55 23.6882Z" fill="black"/>
<path d="M140.955 26.2592C140.955 26.4929 141.265 26.6974 141.619 26.6974C141.974 26.6974 142.284 26.4929 142.284 26.2592C142.284 26.0255 141.974 25.8209 141.619 25.8209C141.265 25.8209 140.955 26.0255 140.955 26.2592Z" fill="black"/>
</g>
<defs>
<clipPath id="clip0_1_6">
<rect width="186.67" height="40" fill="white"/>
</clipPath>
</defs>
</svg>
